<svg width="704" height="136" xmlns="http://www.w3.org/2000/svg"><g fill="#CB2C30"><path d="M685.5 41.1c-.6 0-1.1-.5-1.2-1.1v-8H682c-.6 0-1-.5-1-1s.5-1 1-1h6.8c.6 0 1 .5 1 1s-.5 1-1 1h-2.3v8c.2.6-.3 1.2-1 1.1zm16.9 0c-.6 0-1.1-.5-1.2-1.1v-6.9l-3 7.6c-.1.3-.5.5-.8.4-.2-.1-.3-.2-.4-.4l-3-7.6V40c0 .6-.5 1.1-1.1 1.1-.6 0-1.1-.5-1.2-1.1v-8.2c0-1.1.8-1.9 1.9-1.9.8 0 1.5.5 1.8 1.2l2.2 5.8 2.3-5.8c.3-.7 1-1.2 1.8-1.2 1.1 0 1.9.9 1.9 1.9V40c.1.6-.5 1.2-1.2 1.1zM83.2 26.5c0-3.8 1.2-7.5 3.3-10.7-6.4 1.9-10.9 7.8-10.9 14.5v12.1l7.6.4V26.5zm-7.5 83.2c0 6.7 4.4 12.6 10.9 14.4-2.2-3.1-3.3-6.9-3.3-10.7V90.8h-7.6v18.9zm18.9-18.9H87v22.7c0 6.7 4.4 12.6 10.9 14.5-2.2-3.1-3.3-6.9-3.3-10.7V90.8zm0-68.1c0-3.8 1.1-7.6 3.3-10.7C91.4 13.9 87 19.8 87 26.5V43l7.6.4V22.7zM9.3 17.9C3.5 21.2 0 27.4 0 34v71.9c0 6.7 3.5 12.8 9.3 16.2-1.1-2.7-1.7-5.7-1.7-8.6v-87c0-3 .5-5.9 1.7-8.6zm9.6 1c0-3 .6-5.9 1.7-8.6-5.7 3.4-9.3 9.5-9.3 16.2v87c0 7.9 4.9 15 12.4 17.7-3.1-4-4.8-8.9-4.8-13.9V18.9z"/><path d="M113.5 7.6c-8.4 0-15.1 6.8-15.1 15.1v24.6l-37.8-1.9V18.9C60.3 8.5 51.6.2 41.2.4 31.1.7 22.9 8.8 22.7 18.9v98.4c.2 10.4 8.9 18.7 19.3 18.5 10.1-.2 18.2-8.4 18.5-18.5V87h37.8v30.3c.2 8.4 7.2 15 15.5 14.7 8.1-.2 14.5-6.7 14.7-14.7V22.7c.1-8.4-6.7-15.1-15-15.1zm130.6 92.1v-28h-40.9v28c0 3-2.4 5.5-5.4 5.5-3.1 0-5.6-2.5-5.6-5.5V35.8c0-3 2.5-5.5 5.5-5.5 3.1 0 5.5 2.5 5.5 5.5v26h40.9v-26c-.1-3.1 2.2-5.6 5.3-5.8 3.1-.1 5.6 2.2 5.8 5.3v64.4c.1 3.1-2.2 5.6-5.3 5.8-3.1.2-5.6-2.2-5.8-5.3v-.5zM263 77.9c0-15.4 10.4-28 27-28s27 12.6 27 28-10.3 28.1-27 28.1-27-12.6-27-28.1zm43.6 0c0-10.1-5.9-19.2-16.6-19.2-10.7 0-16.6 9.1-16.6 19.2s6 19.3 16.6 19.3c10.6 0 16.6-9.1 16.6-19.3zm68.4-28c16.1 0 26 12.5 26 26.6 0 3-2.1 4.8-5.9 4.8h-36.5c.8 9.1 7.4 16.6 18.2 16.6 4.8 0 9.4-1.5 13.3-4.3.7-.4 1.4-.6 2.2-.6 2.2 0 4 1.8 4 4 0 1.3-.6 2.6-1.8 3.3-5.5 3.9-12 5.9-18.7 5.7-16 0-27.7-11.3-27.7-28.1.1-15.5 11.3-28 26.9-28zM358.6 74h32.7c-.2-7.1-5-15.9-16.3-15.9-10.8 0-15.9 8.6-16.4 15.9zm48.7 26.2v-65c0-2.8 2.2-5 5-5s5 2.2 5 5v65c0 2.8-2.2 5-5 5s-5-2.2-5-5zm16.4-3.7c0-2.3 1.8-4.3 4.2-4.3h.1c.9 0 1.7.3 2.4.8 4.4 3.2 9.6 5 15.1 5.1 7.5 0 11.5-3.1 11.5-7.6 0-5.3-6.1-7.1-13-8.6-9.1-2.1-19.7-4.5-19.7-16 0-8.5 7.3-15.8 20.4-15.8 6.4-.1 12.6 1.8 17.8 5.5 1.9 1.3 2.3 3.8 1.1 5.6-.8 1.1-2 1.8-3.4 1.8-.8 0-1.6-.3-2.2-.8-3.8-2.7-8.5-4.2-13.2-4.1-6.8 0-11 2.7-11 7 0 4.7 5.8 6.2 12.4 7.8 9.3 2.1 20.4 4.7 20.4 16.9 0 9.2-7.5 16.4-21.6 16.4-7.4 0-14.1-1.9-19.5-6-1.1-1-1.8-2.3-1.8-3.7zm56-4.4c3.8 0 6.9 3.1 7 6.9-.1 3.8-3.2 6.9-7 7-3.8-.1-6.9-3.2-6.9-7 .1-3.9 3.2-6.9 6.9-6.9zm58.8-14.2c0-15.4 10.4-28 27-28s27 12.6 27 28-10.3 28.1-27 28.1-27-12.6-27-28.1zm43.6 0c0-10.1-5.9-19.2-16.6-19.2-10.7 0-16.6 9.1-16.6 19.2s6 19.3 16.6 19.3c10.6 0 16.6-9.1 16.6-19.3zM674.9 66v34.2c0 2.8-2.3 5-5.1 5-2.7 0-4.9-2.3-4.9-5V69c0-6.2-2.8-9.2-9.3-9.2-5.4 0-10.8 6.1-13.3 10v30.4c0 2.8-2.2 5-5 5s-5-2.2-5-5V69c0-6.2-2.7-9.2-9.4-9.2-5.2 0-10.4 6.5-13.1 10.3v30.1c0 2.8-2.2 5-5 5s-5-2.2-5-5V55.6c0-2.7 2.1-5 4.9-5 2.8 0 5 2.1 5.1 4.9v3.2c2.2-3.3 9.3-8.9 17.3-8.9s12.8 4.2 14.5 10c4.1-6.1 10.9-9.8 18.2-10 10 .1 15.1 5.5 15.1 16.2z"/><path d="M516.6 49.9c7.6 0 13 2.4 17.1 6.2.9.9 1.5 2.1 1.5 3.3 0 2.5-1.9 4.5-4.4 4.5-1.1 0-2.2-.4-3-1.1-2.9-2.8-6.8-4.2-10.8-4.1-10.5 0-17.3 8.1-17.3 19.2s6.8 18.9 17.3 19.3c7.1.2 14.2-4.9 20-14 .7-1.1 1.8-3.2 2.6-4.3 1.6-2 2.8-1.1 3.7-.1 1.8 1.8 1.8 6.2.6 8.3-2.3 4.4-5.3 8.5-9 11.8-5 4.6-11.6 7.1-18.4 7-16.2 0-27.2-12.1-27.2-28.1s11.1-27.9 27.3-27.9zM355.3 96.5c0 1.9-5.4 6.1-9.3 8-2.4 1.1-5 1.7-7.6 1.6-8.4 0-12.7-4.8-12.7-13.2v-33h-5.1c-2.4.1-4.5-1.7-4.6-4.2-.1-2.4 1.7-4.5 4.2-4.6h5.5V41c0-2.8 2.2-5 5-5s5 2.2 5 5v10.2h7c2.4-.1 4.5 1.7 4.6 4.2.1 2.4-1.7 4.5-4.2 4.6h-7.4v30.7c0 3.8 1.8 6.5 5.2 6.5 6.1 0 10.9-9.5 13.6-9.5 2.7 0 .8 6.3.8 8.8z"/></g></svg>